<svg width="170" height="38" viewBox="0 0 170 38" fill="none" xmlns="http://www.w3.org/2000/svg">
<path d="M115.395 0.8479L112.871 5.90966H31.0936C31.0936 5.90966 17.9688 5.40348 12.416 16.0332C9.38718 27.169 24.0264 24.6382 24.0264 24.6382L29.0744 16.0332H24.5312L27.56 10.9714H43.2088L32.1032 30.2061H10.9016C10.9016 30.2061 0.300781 27.6752 0.300781 17.5517C0.300781 7.42819 16.4544 0.8479 31.5984 0.8479H115.395Z" fill="#004386"/>
<path d="M80.0591 7.93419C80.0591 7.93419 56.3335 4.89714 43.7135 17.5515C32.6079 29.1936 46.7423 37.7986 46.7423 37.7986L51.7903 32.7368C51.7903 32.7368 47.2471 30.2059 49.7711 24.638H59.3623L56.8383 30.2059H66.9343L75.5159 15.5268H64.9151L62.8959 19.0701H53.8095C53.8095 19.0701 55.8287 11.9836 76.5255 13.5021C78.5447 10.4651 80.0591 7.93419 80.0591 7.93419Z" fill="#004386"/>
<path d="M83.0879 7.42803H111.861L89.6503 24.638H102.27L98.7367 30.2059H70.4679L92.6791 13.5021H79.5543L83.0879 7.42803Z" fill="#004386"/>
<path d="M120.443 0.8479H133.568L130.539 5.90966H117.919L120.443 0.8479Z" fill="#004386"/>
<path d="M138.111 0.8479H169.913L166.885 5.90966H135.587L138.111 0.8479Z" fill="#004386"/>
<path d="M117.414 7.42803H130.034L116.405 30.2059H103.785L117.414 7.42803Z" fill="#004386"/>
<path d="M134.578 7.42803H147.198L149.722 15.0207L154.265 7.42803H166.38L152.75 30.7121H140.635L144.169 24.1318L141.14 15.5268L132.558 30.7121H121.453L134.578 7.42803Z" fill="#004386"/>
</svg>
